<svg width="64" height="64" viewBox="0 0 64 64" fill="none" xmlns="http://www.w3.org/2000/svg">
<path d="M20.52 59.717L27.547 52.517C25.0917 51.9837 22.7528 51.0115 20.643 49.647L20.52 59.717ZM43.48 4.284L36.455 11.483C38.9104 12.0166 41.2492 12.9892 43.359 14.354L43.48 4.284ZM11.484 36.454L4.283 43.479L14.353 43.357C12.9886 41.2476 12.0167 38.909 11.484 36.454ZM52.516 27.547L59.717 20.52L49.647 20.643C51.0114 22.7527 51.9833 25.0916 52.516 27.547ZM14.354 20.642L4.284 20.519L11.485 27.546C12.0166 25.0903 12.9886 22.7512 14.354 20.642ZM49.646 43.358L59.716 43.48L52.515 36.454C51.9832 38.9096 51.0112 41.2487 49.646 43.358ZM27.547 11.483L20.52 4.283L20.643 14.353C22.7528 12.9885 25.0917 12.0163 27.547 11.483ZM36.453 52.517L43.48 59.716L43.357 49.647C41.247 51.0111 38.9082 51.9833 36.453 52.517ZM14.752 43.962L10.785 53.213L20.037 49.248C17.9748 47.8145 16.1851 46.0244 14.752 43.962ZM49.248 20.039L53.213 10.787L43.963 14.752C46.0252 16.1859 47.8149 17.9763 49.248 20.039ZM11 32C11 30.722 11.133 29.476 11.352 28.259L2 31.999L11.352 35.739C11.1234 34.5057 11.0056 33.2543 11 32ZM62 32L52.648 28.259C52.867 29.476 53 30.722 53 32C53 33.279 52.867 34.525 52.648 35.741L62 32ZM20.039 14.751L10.787 10.786L14.752 20.038C16.1863 17.9757 17.9767 16.1854 20.039 14.751ZM43.961 49.248L53.213 53.213L49.248 43.962C47.8139 46.0243 46.0235 47.8143 43.961 49.248ZM35.74 11.352L32 2L28.26 11.352C29.475 11.133 30.721 11 32 11C33.279 11 34.525 11.133 35.74 11.352ZM28.26 52.648L32 62L35.74 52.648C34.525 52.867 33.279 53 32 53C30.721 53 29.475 52.867 28.26 52.648Z" fill="#FACC15"/>
<path d="M32 51C42.4934 51 51 42.4934 51 32C51 21.5066 42.4934 13 32 13C21.5066 13 13 21.5066 13 32C13 42.4934 21.5066 51 32 51Z" fill="#FACC15"/>
</svg>
